<?xml version="1.0" encoding="UTF-8" standalone="no"?>
<!-- Created with Inkscape (http://www.inkscape.org/) -->

<svg
   xmlns:dc="http://purl.org/dc/elements/1.1/"
   xmlns:cc="http://creativecommons.org/ns#"
   xmlns:rdf="http://www.w3.org/1999/02/22-rdf-syntax-ns#"
   xmlns:svg="http://www.w3.org/2000/svg"
   xmlns="http://www.w3.org/2000/svg"
   xmlns:sodipodi="http://sodipodi.sourceforge.net/DTD/sodipodi-0.dtd"
   xmlns:inkscape="http://www.inkscape.org/namespaces/inkscape"
   id="svg2985"
   version="1.1"
   inkscape:version="0.48.5 r10040"
   width="512"
   height="512"
   sodipodi:docname="icon_trim.png">
  <metadata
     id="metadata2991">
    <rdf:RDF>
      <cc:Work
         rdf:about="">
        <dc:format>image/svg+xml</dc:format>
        <dc:type
           rdf:resource="http://purl.org/dc/dcmitype/StillImage" />
        <dc:title></dc:title>
      </cc:Work>
    </rdf:RDF>
  </metadata>
  <defs
     id="defs2989" />
  <sodipodi:namedview
     pagecolor="#ffffff"
     bordercolor="#666666"
     borderopacity="1"
     objecttolerance="10"
     gridtolerance="10"
     guidetolerance="10"
     inkscape:pageopacity="0"
     inkscape:pageshadow="2"
     inkscape:window-width="463"
     inkscape:window-height="423"
     id="namedview2987"
     showgrid="false"
     inkscape:zoom="1.6230469"
     inkscape:cx="256"
     inkscape:cy="256"
     inkscape:window-x="125"
     inkscape:window-y="125"
     inkscape:window-maximized="0"
     inkscape:current-layer="svg2985" />
  <g
     id="g2995"
     transform="matrix(2.032363,0,0,2.032363,-264.2096,-242.18015)"
     inkscape:export-filename="C:\Users\Owner\Dropbox\Android\SnowDay\app\src\main\res\drawable\icon.png"
     inkscape:export-xdpi="90"
     inkscape:export-ydpi="90">
    <path
       style="fill:#6289ae"
       d="m 210.69504,362.25 c -1.40591,-3.27725 -4.36959,-14.12162 -6.14907,-22.5 -0.65529,-3.08529 -2.67024,-3.48125 -8.55257,-1.68067 -7.62048,2.33262 -18.62256,5.09934 -20.91871,5.26047 -2.26375,0.15886 -2.64623,-0.59591 -5.74142,-11.3298 -1.82386,-6.325 -3.31997,-12.52364 -3.32469,-13.77475 -0.0105,-2.79199 0.40361,-2.95715 20.82178,-8.30394 8.7867,-2.30092 16.41701,-4.462 16.95625,-4.8024 1.22798,-0.77517 13.88321,-21.57341 18.02241,-29.61891 1.69776,-3.3 3.98465,-7.32193 5.08197,-8.93762 1.09733,-1.61569 1.7692,-3.30319 1.49306,-3.75 C 228.1079,262.36557 216.98999,262 203.67759,262 L 179.47321,262 165.5,276 c -7.68526,7.7 -14.37977,14 -14.87668,14 C 149.1703,290 130,270.75752 130,269.29902 c 0,-0.72963 3.90338,-5.0329 8.67417,-9.56281 4.7708,-4.52992 9.50611,-9.03402 10.52292,-10.00913 2.48223,-2.38042 1.87398,-3.30944 -9.62924,-14.70733 C 134.30553,229.80561 130,225.07173 130,224.5 c 0,-1.2051 18.14209,-19.5 19.33713,-19.5 0.43975,0 6.50629,5.83787 13.48121,12.97305 6.97491,7.13518 13.35666,13.0385 14.18166,13.11849 0.825,0.08 13.3125,0.0921 27.75,0.0269 22.88214,-0.10328 26.25,-0.31544 26.25,-1.6536 0,-1.61246 -17.15005,-31.64763 -19.86086,-34.78267 -0.8645,-0.99978 -2.48696,-3.41541 -3.60548,-5.36806 -1.95169,-3.40718 -2.55762,-3.68745 -15.03366,-6.95393 -7.15,-1.87202 -16.07348,-4.12584 -19.82995,-5.0085 -3.75647,-0.88266 -7.05349,-2.18736 -7.3267,-2.89934 -0.39332,-1.02499 3.26632,-16.60914 6.27054,-26.70238 0.72646,-2.44067 3.07988,-2.21044 17.38611,1.70085 6.97857,1.90793 12.88582,3.03866 13.37345,2.55986 0.4804,-0.47169 2.51576,-6.85456 4.52301,-14.18416 3.47216,-12.67874 3.78105,-13.34183 6.35455,-13.64085 2.31474,-0.26896 25.10805,6.84003 26.54808,8.28005 0.66629,0.66629 -3.66851,15.4766 -5.28726,18.06447 -0.69846,1.11662 -2.22695,5.51859 -3.39664,9.78215 l -2.12671,7.75194 3.618,6.7008 c 1.98989,3.68544 4.86009,8.50847 6.37822,10.71784 4.87052,7.08824 12.01514,20.69287 12.02027,22.88875 0.003,1.17056 1.06755,3.45633 2.36627,5.07947 l 2.36131,2.95118 2.70956,-3.95118 c 3.6659,-5.34575 13.44143,-22.12543 15.40996,-26.45117 0.87602,-1.925 2.84267,-5.38108 4.37034,-7.68018 1.52768,-2.29909 2.77759,-5.36992 2.77759,-6.82406 0,-1.45413 -1.6267,-8.79805 -3.61488,-16.31982 -5.30679,-20.07684 -5.5732,-21.38786 -4.55335,-22.40771 1.04722,-1.04722 17.91821,-5.74535 23.19316,-6.45869 3.2345,-0.43741 3.66372,-0.18566 5.2093,3.05545 0.9264,1.94268 2.39941,6.36779 3.27337,9.83358 0.87395,3.46578 2.29158,8.47852 3.15029,11.1394 1.35353,4.19421 1.8461,4.75561 3.7017,4.21896 13.35181,-3.86143 25.07552,-6.33152 26.88102,-5.66363 1.68916,0.62486 2.68867,2.91466 4.88718,11.19611 1.52007,5.72582 2.78816,11.17988 2.81798,12.12012 0.10467,3.29953 -4.9794,6.55101 -13.84294,8.85313 -4.73156,1.22893 -11.75283,3.04683 -15.60283,4.03979 -4.60094,1.18663 -7.62927,2.59229 -8.83607,4.10146 C 305.45957,191.96055 284,228.95042 284,229.99343 c 0,1.3594 12.41706,1.94297 31,1.45691 l 18.5,-0.48389 11.69134,-11.65909 11.69134,-11.65908 4.30866,1.27593 c 3.00996,0.89134 6.4618,3.35568 11.45208,8.17586 3.92888,3.79496 7.64138,6.89993 8.25,6.89993 2.35284,0 0.76319,2.1908 -9.03967,12.4582 l -10.14626,10.62705 2.5443,2.70737 c 1.39936,1.48906 3.37768,4.07258 4.39625,5.74115 1.01858,1.66858 3.98946,4.98839 6.60196,7.37736 2.6125,2.38898 4.75,4.85816 4.75,5.48708 C 380,269.75761 362.87743,287 361.52749,287 c -0.51313,0 -6.6179,-5.625 -13.56616,-12.5 l -12.6332,-12.5 -25.10505,0 c -14.22756,0 -25.35174,0.39916 -25.67442,0.92126 -0.31315,0.5067 2.337,5.7942 5.88922,11.75 3.55223,5.95581 8.61939,14.76238 11.26036,19.57016 5.3463,9.73273 3.74416,8.72544 21.80176,13.70709 17.20957,4.7477 21.43431,6.26971 21.93509,7.90239 0.5495,1.79154 -5.6605,24.7798 -7.07143,26.17709 -0.47959,0.47495 -5.31067,-0.62685 -10.86366,-2.47762 -5.5,-1.83311 -12.3625,-3.64907 -15.25,-4.03548 l -5.25,-0.70257 -0.006,2.84384 c -0.006,2.85054 -5.22652,23.29283 -6.4571,25.28395 -1.03125,1.6686 -4.21045,1.23959 -16.43044,-2.21717 -6.48428,-1.83425 -11.82864,-3.91453 -12.40348,-4.82802 -0.74106,-1.17764 -0.035,-4.60088 2.65123,-12.85457 2.0137,-6.18722 4.16051,-14.27248 4.77068,-17.96724 l 1.10941,-6.71775 -6.8672,-11.65795 c -3.77697,-6.41188 -9.06221,-15.50081 -11.74498,-20.19764 -2.68278,-4.69682 -5.33854,-8.82444 -5.90171,-9.1725 C 254.3332,276.46986 252,279.84032 252,282.70182 c 0,1.27575 -2.475,6.32069 -5.5,11.21096 -3.025,4.89027 -5.5,9.29484 -5.5,9.78793 0,0.49309 -2.16084,4.39898 -4.80187,8.67976 l -4.80188,7.78323 4.8915,18.52853 c 3.30978,12.53715 4.56322,18.8568 3.87631,19.54371 C 239.20291,359.19709 215.76063,366 213.40975,366 c -0.6083,0 -1.82992,-1.6875 -2.71471,-3.75 z"
       id="path3009"
       inkscape:connector-curvature="0" />
    <path
       style="fill:#3589c4"
       d="m 212.04169,362.10066 c -0.68428,-1.652 -2.47169,-8.02704 -3.97202,-14.16676 -1.75058,-7.16378 -3.31773,-11.49322 -4.37427,-12.08449 -1.13379,-0.6345 -5.62368,0.19224 -14.4209,2.65536 -7.02597,1.9672 -13.42789,3.67089 -14.22648,3.78598 -0.97527,0.14055 -1.85081,-1.43233 -2.66677,-4.79075 -0.66815,-2.75 -2.15488,-8.15 -3.30386,-12 -1.14898,-3.85 -1.90268,-7.49183 -1.67488,-8.09295 0.2278,-0.60112 8.51602,-3.2502 18.41826,-5.88685 9.90224,-2.63666 18.44989,-5.06983 18.99478,-5.40706 1.20024,-0.74282 8.40823,-12.5157 14.76337,-24.11314 2.5618,-4.675 6.17955,-10.78293 8.03945,-13.57318 1.85989,-2.79026 3.38163,-5.58237 3.38163,-6.20469 0,-1.952 -5.79681,-2.34979 -29.60014,-2.03126 l -23.10014,0.30913 -13.2786,13.75 c -7.30324,7.5625 -13.6822,13.75 -14.17547,13.75 -0.49327,0 -5.13479,-4.20364 -10.3145,-9.34141 l -9.41764,-9.34142 5.69325,-6.00262 c 3.13128,-3.30145 8.05574,-7.91471 10.94324,-10.25171 2.8875,-2.33699 5.25,-4.86935 5.25,-5.62745 0,-0.75811 -4.725,-6.09766 -10.5,-11.86566 C 136.725,229.80172 132,224.7353 132,224.311 c 0,-0.42429 3.88036,-4.66986 8.62302,-9.43459 l 8.62302,-8.66316 13.01836,13.40871 13.01835,13.40871 28.00016,-0.26534 c 24.57103,-0.23284 28.12559,-0.46429 29.02438,-1.88988 0.80261,-1.27306 -0.78265,-4.73492 -7.32676,-16 -13.94536,-24.00566 -18.60129,-30.74997 -21.72273,-31.46635 -1.51679,-0.34811 -9.42586,-2.38257 -17.57572,-4.52101 C 177.53222,176.74964 170.2056,175 169.40069,175 c -0.8049,0 -1.73043,-0.69573 -2.05674,-1.54606 -0.7036,-1.83356 4.52132,-23.43178 6.07854,-25.1268 0.81702,-0.88931 4.0818,-0.34536 13.50444,2.25 6.83481,1.88257 13.45488,3.42286 14.71126,3.42286 2.50152,0 2.89382,-0.98383 7.37671,-18.5 1.26685,-4.95 2.62888,-9.37462 3.02673,-9.8325 0.39785,-0.45787 3.58874,0.0666 7.09087,1.16544 6.29631,1.9756 18.08154,6.19851 18.67354,6.69114 0.59328,0.49369 -2.88028,13.02593 -4.70521,16.97592 -1.01642,2.2 -2.64421,7.17595 -3.61731,11.05766 l -1.76928,7.05766 3.20634,6.44234 c 1.76349,3.54329 5.34955,9.81734 7.96902,13.94234 5.83792,9.19326 9.76455,16.68135 10.48765,20 0.2996,1.375 1.90194,4.075 3.56076,6 l 3.01604,3.5 1.97132,-2.5 c 2.05599,-2.60738 5.78963,-8.98225 14.64202,-25 2.88766,-5.225 6.41631,-11.35838 7.84145,-13.62973 1.42514,-2.27136 2.59116,-4.97353 2.59116,-6.00483 0,-1.0313 -1.60366,-7.94792 -3.56369,-15.37027 -5.34349,-20.23502 -5.38678,-20.40809 -5.41245,-21.63745 -0.0131,-0.62826 3.23864,-1.90365 7.22614,-2.83422 3.9875,-0.93056 8.94661,-2.32904 11.02024,-3.10772 2.07363,-0.77868 4.37499,-1.41578 5.11414,-1.41578 1.61898,0 3.60974,5.146 7.15684,18.5 1.46091,5.5 3.06097,10.42669 3.55569,10.94819 0.56308,0.59358 2.67663,0.31458 5.65128,-0.746 6.64835,-2.37038 19.32306,-5.65051 21.94279,-5.67865 1.20504,-0.0129 2.46316,0.41684 2.79581,0.95508 0.96199,1.55653 5.47378,19.30483 5.49446,21.61391 0.0272,3.03296 -4.28667,4.92758 -21.35776,9.38025 -8.18208,2.13413 -15.20828,4.25081 -15.61377,4.70373 C 304.65324,189.30861 282,229.56747 282,231.12325 282,232.91016 283.22841,233 307.66083,233 l 25.66082,0 12.08918,-11.81264 12.08917,-11.81264 4.06285,1.34895 c 2.66156,0.88369 6.44002,3.74448 10.95509,8.29441 l 6.89225,6.94547 -9.7051,9.87815 C 364.36729,241.27468 360,246.20214 360,246.79162 c 0,1.51716 6.56096,9.52736 12.75807,15.57615 2.89194,2.82273 5.25444,5.59279 5.25,6.15569 C 377.99782,269.82317 362.78487,285 361.49232,285 c -0.52989,0 -6.48875,-5.5125 -13.24191,-12.25 L 335.97195,260.5 312.39759,260.15529 C 287.48776,259.79105 282,260.21151 282,262.4843 c 0,0.76652 2.90732,6.25863 6.46071,12.20468 3.5534,5.94606 8.76517,14.96969 11.58172,20.05251 2.81655,5.08281 5.49617,9.47335 5.95471,9.75675 0.83334,0.51503 14.55115,4.36772 25.0868,7.0457 7.00923,1.78163 12.91606,4.22151 12.91606,5.33512 0,1.34195 -5.85459,23.30886 -6.3422,23.79647 -0.51353,0.51353 -9.71662,-2.19338 -14.44173,-4.24775 C 321.40991,335.6425 318.98712,335 317.83209,335 c -1.15503,0 -3.82548,-0.51695 -5.93434,-1.14878 -4.39389,-1.31644 -7.38507,0.17728 -6.57305,3.28243 0.49304,1.88539 -4.98416,23.79729 -6.29677,25.19065 -0.80728,0.85694 -23.6462,-4.94531 -25.69259,-6.52722 -1.16685,-0.90201 0.25849,-7.04103 4.01599,-17.29708 0.80602,-2.2 2.19768,-7.54588 3.09258,-11.87973 l 1.6271,-7.87973 -12.28551,-21.49691 C 263.02848,285.42033 256.86659,275.50335 256.09242,275.2059 254.17801,274.47035 250,279.52235 250,282.57278 c 0,1.3537 -1.95088,5.7161 -4.33528,9.69424 -2.38441,3.97814 -6.44536,11.05798 -9.02435,15.73298 -2.57899,4.675 -5.18836,9.2083 -5.79859,10.07401 -0.85398,1.21148 -0.001,5.76842 3.70346,19.78517 4.15129,15.70749 4.61651,18.39542 3.38387,19.55134 -0.78601,0.7371 -5.92911,2.4836 -11.42911,3.88112 -5.5,1.39752 -10.72319,2.82708 -11.60708,3.1768 -1.14751,0.45402 -1.96287,-0.22309 -2.85123,-2.36778 z"
       id="path3007"
       inkscape:connector-curvature="0" />
    <path
       style="fill:#3281bc"
       d="m 212.04169,362.10066 c -0.68428,-1.652 -2.47169,-8.02704 -3.97202,-14.16676 -1.75058,-7.16378 -3.31773,-11.49322 -4.37427,-12.08449 -1.13379,-0.6345 -5.62368,0.19224 -14.4209,2.65536 -7.02597,1.9672 -13.42789,3.67089 -14.22648,3.78598 -0.97527,0.14055 -1.85081,-1.43233 -2.66677,-4.79075 -0.66815,-2.75 -2.15488,-8.15 -3.30386,-12 -1.14898,-3.85 -1.90268,-7.49183 -1.67488,-8.09295 0.2278,-0.60112 8.51602,-3.2502 18.41826,-5.88685 9.90224,-2.63666 18.44989,-5.06983 18.99478,-5.40706 1.20024,-0.74282 8.40823,-12.5157 14.76337,-24.11314 2.5618,-4.675 6.17955,-10.78293 8.03945,-13.57318 1.85989,-2.79026 3.38163,-5.58237 3.38163,-6.20469 0,-1.952 -5.79681,-2.34979 -29.60014,-2.03126 l -23.10014,0.30913 -13.2786,13.75 c -7.30324,7.5625 -13.6822,13.75 -14.17547,13.75 -0.49327,0 -5.13479,-4.20364 -10.3145,-9.34141 l -9.41764,-9.34142 5.69325,-6.00262 c 3.13128,-3.30145 8.05574,-7.91471 10.94324,-10.25171 2.8875,-2.33699 5.25,-4.86935 5.25,-5.62745 0,-0.75811 -4.725,-6.09766 -10.5,-11.86566 C 136.725,229.80172 132,224.7353 132,224.311 c 0,-0.42429 3.88036,-4.66986 8.62302,-9.43459 l 8.62302,-8.66316 13.00347,13.39337 13.00347,13.39338 27.75107,0 c 23.83035,0 27.93257,-0.21871 29.03581,-1.54803 1.38717,-1.67143 1.14899,-2.31044 -4.82751,-12.95197 -1.54445,-2.75 -5.39939,-9.6125 -8.56652,-15.25 -3.16713,-5.6375 -6.14819,-10.25 -6.62458,-10.25 -0.9861,0 -3.47103,-6.88355 -2.74648,-7.6081 0.26075,-0.26075 1.83306,0.6694 3.49402,2.067 2.75041,2.31432 3.83256,2.5411 12.12557,2.5411 5.77221,0 9.10564,-0.38974 9.10564,-1.06462 0,-0.58554 -0.94532,-3.26208 -2.10071,-5.94786 -1.1554,-2.68578 -1.88403,-5.4692 -1.6192,-6.18538 0.28042,-0.75831 0.97551,-0.0492 1.66433,1.69786 0.65055,1.65 2.22987,4.125 3.5096,5.5 3.42943,3.68473 13.54598,21.73364 13.54598,24.16735 0,2.70024 3.54525,8.44417 5.72914,9.28221 2.43963,0.93617 3.89955,-1.22851 17.83825,-26.44956 2.88766,-5.225 6.41631,-11.35838 7.84145,-13.62973 1.42514,-2.27136 2.59116,-4.97353 2.59116,-6.00483 0,-1.0313 -1.60366,-7.94792 -3.56369,-15.37027 -5.34349,-20.23502 -5.38678,-20.40809 -5.41245,-21.63745 -0.0131,-0.62826 3.23864,-1.90365 7.22614,-2.83422 3.9875,-0.93056 8.94661,-2.32904 11.02024,-3.10772 5.39943,-2.02757 6.40007,-1.80029 7.63193,1.73344 1.48294,4.25394 1.39637,4.85078 -0.70353,4.85078 -2.06011,0 -18.06408,4.53211 -18.87796,5.34598 -0.54321,0.54322 2.99647,14.69079 6.66877,26.65402 2.49311,8.12179 2.50343,10.67551 0.0681,16.8539 -1.06833,2.71037 -1.66833,5.20203 -1.33334,5.53702 0.335,0.33499 4.36319,0.60908 8.95153,0.60908 l 8.34245,0 -4.99471,9.75 c -2.74709,5.3625 -7.6504,14.45805 -10.89625,20.21234 -3.24585,5.75428 -5.67918,11.04178 -5.40742,11.75 0.38517,1.00373 6.12874,1.28766 26.04796,1.28766 l 25.55384,0 12.08918,-11.82517 12.08917,-11.82517 3.5,1.23321 c 1.925,0.67827 6.875,4.39488 11,8.25913 l 7.5,7.02592 -9.75,9.92596 c -5.3625,5.45928 -9.75,10.40826 -9.75,10.99774 0,1.51716 6.56096,9.52736 12.75807,15.57615 2.89194,2.82273 5.25444,5.59279 5.25,6.15569 C 377.99782,269.82317 362.78487,285 361.49232,285 c -0.52989,0 -6.48875,-5.5125 -13.24191,-12.25 L 335.97195,260.5 312.39759,260.15529 C 287.48776,259.79105 282,260.21151 282,262.4843 c 0,0.76652 2.90732,6.25863 6.46071,12.20468 3.5534,5.94606 8.76517,14.96969 11.58172,20.05251 2.81655,5.08281 5.49617,9.47335 5.95471,9.75675 0.83334,0.51503 14.55115,4.36772 25.0868,7.0457 7.00923,1.78163 12.91606,4.22151 12.91606,5.33512 0,1.34195 -5.85459,23.30886 -6.3422,23.79647 -0.51353,0.51353 -9.71662,-2.19338 -14.44173,-4.24775 C 321.40991,335.6425 318.98712,335 317.83209,335 c -1.15503,0 -3.82548,-0.51695 -5.93434,-1.14878 -4.39389,-1.31644 -7.38507,0.17728 -6.57305,3.28243 0.49304,1.88539 -4.98416,23.79729 -6.29677,25.19065 -0.80728,0.85694 -23.6462,-4.94531 -25.69259,-6.52722 -1.16685,-0.90201 0.25849,-7.04103 4.01599,-17.29708 0.80602,-2.2 2.19768,-7.54588 3.09258,-11.87973 l 1.6271,-7.87973 -12.28551,-21.49691 C 263.02848,285.42033 256.86659,275.50335 256.09242,275.2059 254.17801,274.47035 250,279.52235 250,282.57278 c 0,1.3537 -1.95088,5.7161 -4.33528,9.69424 -2.38441,3.97814 -6.44536,11.05798 -9.02435,15.73298 -2.57899,4.675 -5.18836,9.2083 -5.79859,10.07401 -0.85398,1.21148 -0.001,5.76842 3.70346,19.78517 4.15129,15.70749 4.61651,18.39542 3.38387,19.55134 -0.78601,0.7371 -5.92911,2.4836 -11.42911,3.88112 -5.5,1.39752 -10.72319,2.82708 -11.60708,3.1768 -1.14751,0.45402 -1.96287,-0.22309 -2.85123,-2.36778 z M 167.34395,173.45394 c -0.7036,-1.83356 4.52132,-23.43178 6.07854,-25.1268 0.81702,-0.88931 4.0818,-0.34536 13.50444,2.25 6.83481,1.88257 13.45488,3.42286 14.71126,3.42286 2.50152,0 2.89382,-0.98383 7.37671,-18.5 1.26685,-4.95 2.62888,-9.37462 3.02673,-9.8325 1.34362,-1.54632 25.95837,7.04393 25.95837,9.05916 0,2.44008 -2.87411,2.4946 -11.49198,0.218 -4.69264,-1.23967 -8.78699,-1.99902 -9.09856,-1.68745 -0.31157,0.31157 -2.03788,5.99028 -3.83625,12.61935 -1.79836,6.62908 -3.84313,12.74375 -4.54393,13.58816 -1.85586,2.23617 -6.16135,1.89536 -18.52928,-1.46672 -9.05902,-2.46259 -11.17645,-2.75205 -12,-1.64042 -0.55,0.7424 -1.84972,5.24065 -2.88826,9.99612 -1.84196,8.43424 -1.95923,8.6463 -4.78139,8.6463 -1.68748,0 -3.14035,-0.64428 -3.4864,-1.54606 z m 142.22748,-12.02537 c -3.48201,-3.48201 -2.33266,-4.15633 15.42857,-9.05183 10.37911,-2.86077 12.63238,-2.93217 13.96482,-0.44248 2.09639,3.91714 1.25028,4.50782 -11.21595,7.82988 -13.84078,3.68836 -15.95951,3.88237 -18.17744,1.66443 z"
       id="path3005"
       inkscape:connector-curvature="0" />
    <path
       style="fill:#286eac"
       d="m 212.04169,362.10066 c -0.68428,-1.652 -2.47169,-8.02704 -3.97202,-14.16676 -1.75058,-7.16378 -3.31773,-11.49322 -4.37427,-12.08449 -1.13379,-0.6345 -5.62368,0.19224 -14.4209,2.65536 -7.02597,1.9672 -13.42789,3.67089 -14.22648,3.78598 -0.97527,0.14055 -1.85081,-1.43233 -2.66677,-4.79075 -0.66815,-2.75 -2.15488,-8.15 -3.30386,-12 -1.14898,-3.85 -1.90268,-7.49183 -1.67488,-8.09295 0.2278,-0.60112 8.51602,-3.2502 18.41826,-5.88685 9.90224,-2.63666 18.44989,-5.06983 18.99478,-5.40706 1.20024,-0.74282 8.40823,-12.5157 14.76337,-24.11314 2.5618,-4.675 6.23007,-10.85629 8.15173,-13.73621 C 233.37561,259.80388 233.9357,260 204.13009,260 l -25.93269,0 -13.23277,14 c -7.27802,7.7 -13.63396,14 -14.1243,14 -0.49034,0 -5.12947,-4.20364 -10.30918,-9.34141 l -9.41764,-9.34142 5.69325,-6.00262 c 3.13128,-3.30145 8.05574,-7.91471 10.94324,-10.25171 2.8875,-2.33699 5.25,-4.91493 5.25,-5.72875 0,-0.81382 -4.725,-6.17044 -10.5,-11.9036 -5.775,-5.73317 -10.5,-10.77229 -10.5,-11.19806 0,-0.42577 3.98619,-4.74185 8.8582,-9.59128 l 8.85819,-8.81716 2.14181,2.72286 c 1.17799,1.49758 2.1418,3.15563 2.1418,3.68456 0,0.52893 -1.8,3.0066 -4,5.50593 -6.02007,6.83916 -5.26551,8.27578 4.33179,8.24735 6.05876,-0.018 7.97366,-0.88753 6.63074,-3.01108 -2.37031,-3.74815 -0.37539,-2.69326 6.43703,3.40382 l 7.39955,6.62257 27.90045,0 c 20.36701,0 28.22445,-0.32401 29.10044,-1.2 1.75881,-1.75881 1.45679,-4.89237 -0.8,-8.3 -3.04704,-4.60087 -2.38055,-5.26117 1.50711,-1.49311 3.10751,3.01192 4.24456,3.44619 9.97929,3.81135 3.55969,0.22666 8.03886,0.1182 9.9537,-0.24103 3.18684,-0.59785 3.40411,-0.85676 2.56688,-3.05884 -0.74688,-1.96447 -0.41872,-2.93948 1.78919,-5.31591 2.65464,-2.85725 5.27783,-7.21545 15.77122,-26.20246 2.88766,-5.225 6.41631,-11.35838 7.84145,-13.62973 1.42514,-2.27136 2.59116,-4.97353 2.59116,-6.00483 0,-1.0313 -1.60366,-7.94792 -3.56369,-15.37027 -5.34349,-20.23502 -5.38678,-20.40809 -5.41245,-21.63745 -0.0131,-0.62826 3.23864,-1.91533 7.22614,-2.86016 3.9875,-0.94484 9.40444,-2.45495 12.03765,-3.35581 4.23417,-1.44858 4.89714,-1.46474 5.73469,-0.13984 0.52087,0.82395 0.95393,2.25366 0.96235,3.17713 0.0152,1.66371 -0.97842,2.04958 -15.48469,6.01362 -3.8643,1.05597 -5.07197,1.86597 -5.31683,3.56609 -0.17426,1.20988 1.51324,8.91199 3.75,17.11581 2.23675,8.20381 4.08155,15.97564 4.09955,17.27073 0.018,1.29509 -5.2695,12.82494 -11.75,25.62188 -9.85425,19.45904 -11.53722,23.42552 -10.28272,24.23469 0.825,0.53213 5.0775,0.97441 9.45,0.98283 6.18333,0.0119 7.68333,0.28198 6.75,1.21531 -1.44812,1.44812 -1.59173,5.50125 -0.21142,5.96667 0.54373,0.18333 12.6877,0.10833 26.98662,-0.16667 l 25.99804,-0.5 11.76338,-11.58306 c 11.71449,-11.53492 11.77669,-11.57841 14.96489,-10.46515 4.67332,1.63183 4.9277,2.27334 2.10504,5.30864 -1.4012,1.50676 -3.35782,4.01547 -4.34803,5.57491 -2.33355,3.67502 -0.97979,4.63403 6.54148,4.63403 5.88269,0 8.68201,-1.05683 7.5691,-2.85757 -1.16677,-1.88786 1.01769,-1.22587 2.9309,0.8882 2.12166,2.34441 2.43234,1.85899 -8.73229,13.64342 -3.72224,3.92888 -6.76771,7.9297 -6.76771,8.89071 0,1.96659 4.93491,8.07153 12.75807,15.78292 2.89194,2.85062 5.25444,5.58234 5.25,6.07049 C 377.99568,269.74978 362.76792,285 361.42008,285 c -0.65283,0 -6.50097,-5.5125 -12.99586,-12.25 l -11.80889,-12.25 -26.64782,-0.29506 c -21.23536,-0.23514 -26.87206,-0.0249 -27.75187,1.03522 -0.84549,1.01876 0.51535,4.01517 5.811,12.79507 3.80327,6.30562 9.21493,15.62344 12.02591,20.70626 2.81099,5.08281 5.48605,9.47335 5.94459,9.75675 0.83334,0.51503 14.55115,4.36772 25.0868,7.0457 7.00923,1.78163 12.91606,4.22151 12.91606,5.33512 0,1.34195 -5.85459,23.30886 -6.3422,23.79647 -0.51353,0.51353 -9.71662,-2.19338 -14.44173,-4.24775 C 321.40991,335.6425 318.98712,335 317.83209,335 c -1.15503,0 -3.82548,-0.51695 -5.93434,-1.14878 -4.39389,-1.31644 -7.38507,0.17728 -6.57305,3.28243 0.49304,1.88539 -4.98416,23.79729 -6.29677,25.19065 -0.80728,0.85694 -23.6462,-4.94531 -25.69259,-6.52722 -1.16685,-0.90201 0.25849,-7.04103 4.01599,-17.29708 0.80602,-2.2 2.19768,-7.54588 3.09258,-11.87973 l 1.6271,-7.87973 -12.28551,-21.49691 c -6.75702,-11.8233 -12.91891,-21.74028 -13.69308,-22.03773 -1.8332,-0.70435 -6.09242,4.26229 -6.09242,7.10432 0,1.20928 -1.77666,5.12169 -3.94814,8.69424 -2.17147,3.57255 -5.51555,9.64968 -7.43128,13.50474 -1.91573,3.85505 -4.63907,8.71254 -6.05187,10.79441 -1.41279,2.08186 -2.57334,4.10272 -2.579,4.4908 -0.006,0.38807 2.09995,8.70892 4.67912,18.49077 4.04496,15.34106 4.493,17.96934 3.26028,19.12534 -0.78601,0.7371 -5.92911,2.4836 -11.42911,3.88112 -5.5,1.39752 -10.72319,2.82708 -11.60708,3.1768 -1.14751,0.45402 -1.96287,-0.22309 -2.85123,-2.36778 z M 167.34395,173.45394 c -0.7036,-1.83356 4.52132,-23.43178 6.07854,-25.1268 0.81702,-0.88931 4.0818,-0.34536 13.50444,2.25 6.83481,1.88257 13.45488,3.42286 14.71126,3.42286 2.50152,0 2.89382,-0.98383 7.37671,-18.5 1.26685,-4.95 2.62888,-9.37462 3.02673,-9.8325 1.32866,-1.52911 25.95837,7.03659 25.95837,9.02778 0,1.78585 -1.18919,1.66923 -11.27518,-1.1057 -7.03343,-1.9351 -9.00891,-2.16263 -10.01771,-1.15383 -0.69113,0.69113 -2.7629,6.7605 -4.60393,13.48748 -4.27681,15.62715 -3.93287,15.43033 -19.58628,11.2083 C 186.13123,155.40919 180.26844,154 179.48848,154 c -1.77264,0 -2.87026,2.12157 -4.39756,8.5 -2.83282,11.83057 -3.10921,12.5 -5.16085,12.5 -1.09606,0 -2.25981,-0.69573 -2.58612,-1.54606 z M 311.21933,160.44107 C 309.9987,159.58611 309,158.551 309,158.14084 c 0,-1.43993 21.80412,-8.06512 26.71482,-8.1173 2.36748,-0.0252 4.59219,2.92271 3.4654,4.59187 -0.37412,0.5542 -5.63022,2.25343 -11.68022,3.77607 -6.05,1.52263 -11.6888,2.95645 -12.53067,3.18625 -0.84187,0.2298 -2.52937,-0.2817 -3.75,-1.13666 z"
       id="path3003"
       inkscape:connector-curvature="0" />
    <path
       style="fill:#184d8e"
       d="m 211.7521,361.25 c -0.80578,-2.0625 -2.25985,-7.35 -3.23127,-11.75 -3.42286,-15.50375 -2.60799,-14.00718 -7.59164,-13.94264 -5.05661,0.0655 -22.24458,4.62958 -24.50764,6.50775 -1.98575,1.64802 -2.97869,0.45922 -4.23059,-5.06511 -0.56088,-2.475 -1.99848,-7.81231 -3.19469,-11.86068 -1.1962,-4.04837 -1.79722,-7.72514 -1.33559,-8.17058 0.46163,-0.44544 7.81432,-2.66851 16.33932,-4.94014 23.02579,-6.13562 21.08698,-5.16195 25.46755,-12.78973 2.12855,-3.70638 4.41596,-7.41387 5.08314,-8.23887 0.66718,-0.825 3.7655,-6.225 6.88517,-12 6.06944,-11.23552 9.97234,-16.16432 12.14089,-15.33218 2.53713,0.97359 2.50954,4.18742 -0.0889,10.36112 -1.42995,3.39742 -2.4622,7.14326 -2.29387,8.32409 0.27868,1.95495 0.99921,2.17309 8.05605,2.43903 5.41887,0.20422 7.75,0.67171 7.75,1.55422 0,0.69419 -1.35533,3.39928 -3.01183,6.01133 -1.65651,2.61204 -4.55059,7.99178 -6.43129,11.95497 -1.8807,3.9632 -4.60949,8.95943 -6.06397,11.10273 -1.45449,2.14331 -2.42699,4.61417 -2.16111,5.49081 3.74646,12.3526 9.48824,35.66237 8.91626,36.19711 -0.41143,0.38464 -5.24806,1.87744 -10.74806,3.31734 -5.5,1.4399 -10.78139,3.05932 -11.73643,3.59871 -2.42647,1.37045 -2.38222,1.401 -4.01147,-2.76928 z M 286.5,359.44811 c -4.4,-1.31325 -8.9225,-2.4013 -10.05,-2.41791 -4.75524,-0.07 -4.58582,-3.55309 0.90133,-18.5302 0.80602,-2.2 2.19568,-7.5362 3.08814,-11.85822 l 1.62265,-7.85822 -5.70247,-10.14178 C 263.3462,285.49753 261,281.05608 261,279.56538 c 0,-2.16475 0.36246,-2.03882 5.56794,1.93462 4.35258,3.3224 4.9889,3.5 12.54004,3.5 8.98864,0 9.91726,-0.75283 8.12639,-6.58802 -1.43986,-4.69147 -0.0841,-4.27932 2.7566,0.83802 1.29759,2.3375 3.3395,5.6 4.53759,7.25 1.19809,1.65 4.07538,6.48673 6.39399,10.74829 3.31208,6.08754 4.79027,7.8645 6.89655,8.29046 1.4745,0.2982 6.0559,1.46186 10.1809,2.58591 4.125,1.12405 10.01277,2.67258 13.08394,3.44118 9.13433,2.28597 13.1971,4.29958 12.59059,6.24019 -0.29118,0.93168 -1.74794,6.19397 -3.23724,11.69397 -1.4893,5.5 -2.81446,10.13001 -2.9448,10.28891 -0.36772,0.4483 -14.02697,-3.4694 -16.25661,-4.66267 -1.09185,-0.58434 -5.07035,-1.18929 -8.8411,-1.34434 l -6.85592,-0.2819 -0.67784,5 c -0.37282,2.75 -1.77303,9.05 -3.11159,14 -2.87306,10.62461 -2.89613,10.63512 -15.24943,6.94811 z m -143.21027,-79.1732 c -3.73435,-3.7367 -8.05113,-7.68971 -9.59285,-8.78446 l -2.80311,-1.99045 5.30311,-5.6385 c 2.91672,-3.10118 8.30097,-8.14154 11.96501,-11.2008 5.16651,-4.31374 6.7939,-5.21828 7.25,-4.02971 1.33021,3.46648 0.20234,5.50657 -7.91189,14.31109 -4.675,5.07271 -8.5,9.58932 -8.5,10.03692 0,1.08288 6.03968,6.34065 9.90956,8.62664 1.69974,1.00407 3.09044,2.37699 3.09044,3.05095 0,3.11784 -2.44429,1.88824 -8.71027,-4.38168 z m 36.84851,-43.89064 c -1.26873,-0.88865 -1.93136,-1.98895 -1.47251,-2.4451 0.90496,-0.89964 55.08251,-1.52426 55.96158,-0.64519 0.2941,0.2941 0.0324,1.47327 -0.58147,2.62037 C 232.95961,237.94399 232.2517,238 207.68732,238 c -21.62271,0 -25.57309,-0.23169 -27.54908,-1.61573 z M 286.25,237.33772 c -1.75974,-0.71007 -1.55551,-3.00651 0.33179,-3.73073 C 287.45177,233.27314 298.32414,233 310.74261,233 l 22.57904,0 12.08918,-11.88908 c 10.95985,-10.77846 12.29935,-11.79176 14.33917,-10.84719 1.2375,0.57304 2.25,1.33806 2.25,1.70003 0,0.36197 -5.5125,6.37824 -12.25,13.36949 l -12.25,12.71135 -25,-0.10125 c -13.75,-0.0557 -25.5625,-0.32822 -26.25,-0.60563 z M 133.22919,226.82919 C 132.55313,226.15313 132,225.11812 132,224.52915 c 0,-0.58897 3.99241,-5.04476 8.87202,-9.90176 l 8.87202,-8.83091 1.61135,2.30052 c 1.57479,2.24833 1.42453,2.49457 -6.62202,10.85177 -4.52835,4.70317 -8.69274,8.67686 -9.25418,8.83042 -0.56145,0.15355 -1.57395,-0.27395 -2.25,-0.95 z M 258,217.97856 c 0,-1.11179 1.06081,-3.69929 2.35735,-5.75 4.19871,-6.641 13.35023,-22.59122 16.00848,-27.90123 1.42422,-2.84497 3.7193,-6.83754 5.10017,-8.87237 1.69852,-2.50291 2.34784,-4.54968 2.00727,-6.32733 -0.27871,-1.45479 0.19073,-0.84224 1.05175,1.37237 0.85533,2.2 1.30827,4.99365 1.00652,6.20811 -0.74895,3.01443 -22.39173,41.58219 -23.85756,42.51454 C 259.56083,220.56674 258,220.03821 258,217.97856 z m -90.66252,-44.54148 c -0.69897,-1.82148 4.53605,-23.42391 6.08501,-25.10994 0.81702,-0.88931 4.0818,-0.34536 13.50444,2.25 6.83481,1.88257 13.45488,3.42286 14.71126,3.42286 2.50152,0 2.89382,-0.98383 7.37671,-18.5 1.26685,-4.95 2.62177,-9.36751 3.01092,-9.81669 0.71273,-0.82266 9.9087,1.4894 15.47418,3.89053 1.65,0.71186 4.4625,1.88381 6.25,2.60434 6.30084,2.53981 3.1366,2.52313 -6.6297,-0.035 -7.87443,-2.06254 -10.17715,-2.34093 -11.34514,-1.37158 -0.80599,0.66891 -2.71998,6.05643 -4.25332,11.97228 -3.20592,12.36892 -4.68153,15.25669 -7.79489,15.25456 -1.22482,-8.4e-4 -7.25582,-1.34962 -13.40222,-2.99729 -6.14641,-1.64767 -11.87512,-2.72722 -12.73047,-2.39899 -1.57181,0.60316 -1.94295,1.62232 -5.21174,14.31142 -1.77126,6.87583 -3.86896,9.58826 -5.04504,6.52346 z m 144.32919,-14.10375 c -1.13942,-1.13941 -0.74127,-2.22304 1.19815,-3.26099 2.55072,-1.3651 20.43204,-6.07234 23.06691,-6.07234 1.89921,0 3.94903,2.45257 2.91449,3.48712 C 338.15956,154.17377 316.06707,160 314.14999,160 c -0.99916,0 -2.11666,-0.3 -2.48332,-0.66667 z m -36.50572,-20.30148 c -1.87348,-5.37426 -1.59754,-5.71452 6.08905,-7.50835 3.9875,-0.93056 8.94661,-2.32904 11.02024,-3.10772 5.33251,-2.00244 6.72976,-1.80684 6.72976,0.94209 0,2.12219 -0.87461,2.58788 -8.75,4.65899 -10.61807,2.79239 -12.14093,3.51407 -13.14546,6.22958 -0.71804,1.94105 -0.87848,1.84079 -1.94359,-1.21459 z"
       id="path3001"
       inkscape:connector-curvature="0" />
    <path
       style="fill:#244a6b"
       d="M 212.20222,362.54447 C 210.75999,359.37913 207,344.37074 207,341.77929 c 0,-1.09813 0.54461,-1.77601 1.25,-1.5559 1.48525,0.46346 7.91034,19.42848 7.52048,22.19828 -0.40667,2.88928 -2.27842,2.95369 -3.56826,0.1228 z m 61.13546,-6.60679 c -1.14045,-1.14045 0.23977,-7.13691 4.01365,-17.43768 0.80602,-2.2 2.19568,-7.5362 3.08814,-11.85822 l 1.62265,-7.85822 -5.40118,-9.64178 C 273.69028,303.8388 270.22604,297.7 268.96263,295.5 c -4.6686,-8.12947 0.0903,-1.64217 6.60213,9 3.70193,6.05 7.56261,12.35 8.57928,14 2.51284,4.07822 2.36897,5.75016 -1.97923,23 -3.16313,12.54848 -4.10036,15.04712 -5.73463,15.28832 -1.07444,0.15858 -2.46607,-0.22421 -3.0925,-0.85064 z M 173.49528,341.75 c -0.24307,-0.6875 -0.86828,-3.05 -1.38936,-5.25 -0.52108,-2.2 -1.92327,-7.31231 -3.11599,-11.36068 -1.19271,-4.04837 -1.79088,-7.72514 -1.32925,-8.17058 0.46163,-0.44544 7.81432,-2.66851 16.33932,-4.94014 8.525,-2.27163 16.88818,-4.56774 18.58485,-5.10247 3.2272,-1.01709 5.41645,-4.24295 17.0778,-25.16405 8.94475,-16.0474 12.16346,-19.57132 13.16395,-14.41221 0.38092,1.96423 -19.93698,39.02819 -23.29844,42.50108 -1.6689,1.72423 -6.77115,3.59185 -19.13925,7.00571 -13.6378,3.76433 -16.93342,5.0167 -17.2281,6.54686 -0.20042,1.04066 0.62292,5.21789 1.82964,9.28273 C 177.13534,339.91135 177.1382,343 175,343 c -0.58452,0 -1.26165,-0.5625 -1.50472,-1.25 z m 152.75011,-27.07425 c -8.93568,-2.44603 -16.18472,-5.00365 -17.5,-6.1744 l -2.24539,-1.99866 2.2221,-0.31724 c 1.22215,-0.17448 5.49715,0.65467 9.5,1.84256 4.00284,1.18788 9.79067,2.78427 12.86184,3.54753 8.07048,2.00571 12.91606,4.23336 12.91606,5.93788 0,1.99355 -0.2535,1.95303 -17.75461,-2.83767 z M 132.99272,271.1844 c -2.04665,-1.66796 -2.01034,-1.74388 3.72023,-7.77844 7.02618,-7.39891 16.12946,-14.89688 17.01326,-14.01308 1.4342,1.4342 -1.66082,5.94134 -9.94643,14.48457 -8.46547,8.72869 -8.78061,8.94215 -10.78706,7.30695 z M 182.25,235.96884 c -5.78201,-2.32408 -1.37046,-2.91357 23.84646,-3.18645 14.35305,-0.15531 26.31679,0.0748 26.58609,0.51141 0.2693,0.4366 -0.0542,1.4491 -0.7189,2.25 -0.99726,1.20163 -5.25168,1.44512 -24.33609,1.39281 -12.72016,-0.0349 -24.14006,-0.47036 -25.37756,-0.96777 z m 106,0.3946 C 287.5625,236.07188 287,235.19583 287,234.41667 287,233.23522 290.8456,233 310.16083,233 l 23.16082,0 12.14234,-12.00417 c 11.33189,-11.20295 12.27228,-11.90697 14.08917,-10.54783 1.84847,1.38276 1.32769,2.07775 -10.30639,13.75417 L 336.99355,236.5 l -23.74678,0.19677 c -13.06072,0.10822 -24.30927,-0.0418 -24.99677,-0.33333 z M 133.24826,226.84826 C 132.56172,226.16172 132,225.11812 132,224.52915 c 0,-0.58897 3.95322,-5.00575 8.78493,-9.81507 6.89326,-6.86133 9.04656,-8.48259 10,-7.52915 0.66829,0.66829 1.21507,1.53618 1.21507,1.92864 0,0.39246 -3.93828,4.82418 -8.75174,9.84826 -6.99488,7.30095 -9.00233,8.8841 -10,7.88643 z M 258,216.97856 c 0,-0.56179 1.06081,-2.69929 2.35735,-4.75 4.19871,-6.641 13.35023,-22.59122 16.00848,-27.90123 3.81609,-7.62289 7.37521,-12.55536 8.15229,-11.29801 1.25455,2.0299 -0.5634,6.01395 -11.6349,25.49813 C 264.56815,213.16074 261.34387,218 259.90917,218 258.85912,218 258,217.54035 258,216.97856 z m -90.59188,-43.3574 c -0.74967,-1.9536 4.37619,-23.51088 6.01437,-25.29402 0.81702,-0.88931 4.0818,-0.34536 13.50444,2.25 6.83481,1.88257 13.45488,3.42286 14.71126,3.42286 2.50152,0 2.89382,-0.98383 7.37671,-18.5 1.26685,-4.95 2.62177,-9.36751 3.01092,-9.81669 0.71044,-0.82001 9.86925,1.47851 15.47418,3.88346 1.65,0.70797 3.85191,1.55567 4.89313,1.88377 1.04122,0.32809 1.68489,0.80477 1.43039,1.05928 -0.25451,0.25451 -3.78331,-0.45744 -7.84177,-1.58209 -4.05846,-1.12466 -8.38288,-1.79288 -9.60982,-1.48494 -2.30731,0.5791 -3.02276,2.39995 -6.88939,17.53384 -2.98089,11.66712 -2.87573,11.62987 -19.86209,7.03477 -8.00669,-2.16594 -11.37346,-2.67877 -12.75,-1.94207 -1.02875,0.55057 -1.87045,1.1701 -1.87045,1.37673 0,1.63969 -5.38111,20.25528 -6.06202,20.97116 -0.51834,0.54495 -1.13925,0.22187 -1.52986,-0.79606 z M 312,157.57755 c 0,-1.52948 2.3101,-2.44404 14,-5.54254 8.53029,-2.26102 11.59597,-2.49777 12.54112,-0.96848 0.99073,1.60304 0.56054,1.79462 -11.17208,4.97521 C 315.18411,159.34495 312,159.66314 312,157.57755 z m -37.33105,-19.67969 c -1.14731,-4.28756 -0.76208,-4.66069 6.58105,-6.37436 3.9875,-0.93056 8.94661,-2.32904 11.02024,-3.10772 5.09772,-1.91427 6.72976,-1.78194 6.72976,0.54568 0,1.46749 -1.0703,2.2399 -4.25,3.06712 -11.52042,2.99712 -17.03924,4.98472 -18.18269,6.54848 -1.15098,1.57407 -1.3107,1.51692 -1.89836,-0.6792 z"
       id="path2999"
       inkscape:connector-curvature="0" />
    <path
       style="fill:#163558"
       d="M 213.30586,362.46119 C 212.23718,360.56684 208,344.86859 208,342.8036 c 0,-0.5069 0.42642,-0.65809 0.94761,-0.33598 1.38535,0.85619 6.22624,17.32893 5.83872,19.86816 -0.32858,2.15302 -0.33624,2.15367 -1.48047,0.12541 z m 60.19917,-7.45305 c -0.33716,-0.54553 0.94759,-5.60803 2.85499,-11.25 1.9074,-5.64198 4.01336,-12.73314 4.6799,-15.75814 1.75197,-7.9511 1.84552,-8.18884 2.95302,-7.50437 1.6779,1.03701 1.1697,5.08676 -2.58913,20.63186 C 278.38392,353.61668 277.512,356 275.96283,356 c -1.01464,0 -2.12065,-0.44634 -2.4578,-0.99186 z M 174.1192,339.6849 C 173.50364,338.1366 173,336.16614 173,335.30612 c 0,-0.86003 -1.19954,-5.10619 -2.66565,-9.43592 -1.4661,-4.32974 -2.41429,-8.12359 -2.10709,-8.4308 0.30721,-0.3072 8.79211,-2.7771 18.85534,-5.48867 10.06323,-2.71156 18.59444,-5.27225 18.95826,-5.69042 C 206.95918,305.20478 222,279.98446 222,279.50016 c 0,-0.21615 1.61142,-3.14248 3.58093,-6.50294 3.32303,-5.66989 6.33378,-7.58046 5.6054,-3.55709 -0.61487,3.39636 -21.46243,39.69367 -23.55489,41.01099 -1.17229,0.73802 -8.20644,2.989 -15.63144,5.00217 -20.07937,5.44419 -20,5.4132 -20,7.81048 0,1.15976 0.92991,5.42264 2.06646,9.47307 2.08616,7.43462 2.12197,12.15277 0.0527,6.94806 z M 329,314.54489 c -6.325,-1.77663 -12.625,-3.50649 -14,-3.84413 -1.375,-0.33765 -3.4,-1.34073 -4.5,-2.22908 -1.91385,-1.54561 -1.84924,-1.58963 1.5,-1.02203 1.925,0.32624 7.1,1.65833 11.5,2.9602 4.4,1.30187 9.80864,2.85419 12.0192,3.44959 4.33266,1.16697 9.15402,4.14002 6.4808,3.99632 -0.825,-0.0443 -6.675,-1.53424 -13,-3.31087 z m -195.90804,-44.4669 c -1.08876,-0.68925 0.23278,-2.50317 5.82795,-7.99931 C 145.37104,255.74171 152,250.91141 152,252.54764 c 0,0.76824 -16.29352,18.45743 -16.98238,18.43705 -0.28469,-0.008 -1.15124,-0.41644 -1.92566,-0.9067 z M 183.5,235 c -1.19017,-0.51144 8.12283,-0.88169 23,-0.9144 16.48552,-0.0362 24.48913,0.27517 23.5,0.9144 -1.85648,1.19975 -43.70803,1.19975 -46.5,0 z m 106.0319,0.0516 C 289.08479,234.32818 295.81516,234 311.09831,234 l 22.21635,0 11.64341,-11.5 C 355.4103,212.17652 359,209.43254 359,211.76631 c 0,0.42147 -5.18147,5.93397 -11.51438,12.25 L 335.97124,235.5 l -22.8947,0.30161 c -15.24914,0.20089 -23.11175,-0.0496 -23.54464,-0.75 z m -156.92174,-9.87337 c -0.27933,-0.45196 3.46321,-4.77444 8.31676,-9.6055 5.91844,-5.89101 9.07096,-8.38519 9.5726,-7.57352 0.47361,0.76633 -2.31536,4.28955 -7.6037,9.60551 -8.34645,8.39003 -9.33237,9.11598 -10.28566,7.57351 z M 263.14126,209.75 c 1.75114,-3.4375 3.97283,-7.15 4.93709,-8.25 0.96426,-1.1 4.00721,-6.5 6.76211,-12 5.31875,-10.61857 8.07415,-14.91292 8.12774,-12.66727 C 283.01055,178.6076 261.82332,216 260.77529,216 c -0.44986,0 0.61483,-2.8125 2.36597,-6.25 z M 168,172.63048 c 0,-1.75051 4.30925,-17.65456 4.68244,-17.28137 0.43918,0.43918 -3.54533,16.84392 -4.26694,17.56756 C 168.18698,173.14583 168,173.01705 168,172.63048 z M 314,157 c 0,-0.55 0.22702,-1 0.50449,-1 0.27746,0 4.73262,-1.125 9.90034,-2.5 9.73035,-2.589 13.70839,-3.13522 12.04517,-1.6539 C 335.62167,152.58383 316.44988,158 314.66682,158 314.30007,158 314,157.55 314,157 z m -141,-5.3302 c 0,-2.75903 1.65729,-4.4254 3.01615,-3.03267 0.46304,0.47458 -0.0262,1.92522 -1.08713,3.22365 L 173,154.22157 l 0,-2.55177 z m 33.07895,-0.0865 c -0.0434,-1.05416 0.19292,-1.64479 0.52522,-1.3125 0.33229,0.33229 0.36781,1.19479 0.0789,1.91667 -0.31922,0.79773 -0.55618,0.56078 -0.60416,-0.60417 z m 1.58368,-5.56183 c 0.32816,-1.91317 1.19847,-5.28817 1.93402,-7.5 1.27506,-3.83413 1.30957,-3.85943 0.74072,-0.543 -0.32816,1.91317 -1.19847,5.28817 -1.93402,7.5 -1.27506,3.83413 -1.30957,3.85943 -0.74072,0.543 z M 275,135.18759 C 275,134.20321 284.2713,131 287.12047,131 c 0.72197,0 3.25024,-0.73997 5.61839,-1.64437 2.36815,-0.90441 4.5957,-1.35441 4.9501,-1 1.09943,1.09943 -0.13468,1.63853 -9.80988,4.28533 -5.15849,1.41119 -10.16658,2.79676 -11.12908,3.07905 -0.9625,0.28229 -1.75,0.0427 -1.75,-0.53242 z M 211.64895,130.5 c 0.74236,-4.81765 0.81588,-4.91934 2.96142,-4.09602 1.5549,0.59667 1.56167,0.75317 0.0811,1.87354 -0.88854,0.67236 -2.07529,2.34748 -2.6372,3.72248 -0.85247,2.08596 -0.91959,1.83753 -0.4053,-1.5 z"
       id="path2997"
       inkscape:connector-curvature="0" />
  </g>
</svg>
